<?xml version="1.0" encoding="utf-8" standalone="no"?>
<!DOCTYPE svg PUBLIC "-//W3C//DTD SVG 1.1//EN"
  "http://www.w3.org/Graphics/SVG/1.1/DTD/svg11.dtd">
<!-- Created with matplotlib (https://matplotlib.org/) -->
<svg height="180pt" version="1.1" viewBox="0 0 252 180" width="252pt" xmlns="http://www.w3.org/2000/svg" xmlns:xlink="http://www.w3.org/1999/xlink">
 <metadata>
  <rdf:RDF xmlns:cc="http://creativecommons.org/ns#" xmlns:dc="http://purl.org/dc/elements/1.1/" xmlns:rdf="http://www.w3.org/1999/02/22-rdf-syntax-ns#">
   <cc:Work>
    <dc:type rdf:resource="http://purl.org/dc/dcmitype/StillImage"/>
    <dc:date>2021-07-07T11:33:46.957247</dc:date>
    <dc:format>image/svg+xml</dc:format>
    <dc:creator>
     <cc:Agent>
      <dc:title>Matplotlib v3.3.1, https://matplotlib.org/</dc:title>
     </cc:Agent>
    </dc:creator>
   </cc:Work>
  </rdf:RDF>
 </metadata>
 <defs>
  <style type="text/css">*{stroke-linecap:butt;stroke-linejoin:round;}</style>
 </defs>
 <g id="figure_1">
  <g id="patch_1">
   <path d="M 0 180 
L 252 180 
L 252 0 
L 0 0 
z
" style="fill:#ffffff;"/>
  </g>
  <g id="axes_1">
   <g id="patch_2">
    <path d="M 31.5 160.2 
L 226.8 160.2 
L 226.8 21.6 
L 31.5 21.6 
z
" style="fill:#ffffff;"/>
   </g>
   <g id="matplotlib.axis_1">
    <g id="xtick_1">
     <g id="line2d_1">
      <defs>
       <path d="M 0 0 
L 0 3.5 
" id="m07f6d86755" style="stroke:#000000;stroke-width:0.8;"/>
      </defs>
      <g>
       <use style="stroke:#000000;stroke-width:0.8;" x="40.377273" xlink:href="#m07f6d86755" y="160.2"/>
      </g>
     </g>
     <g id="text_1">
      <text style="font-family:Latin Modern Math;font-size:10px;font-stretch:normal;font-style:normal;font-weight:normal;text-anchor:middle;" transform="rotate(-0, 40.377273, 174.140625)" x="40.377273" y="174.140625">0</text>
     </g>
    </g>
    <g id="xtick_2">
     <g id="line2d_2">
      <g>
       <use style="stroke:#000000;stroke-width:0.8;" x="74.109785" xlink:href="#m07f6d86755" y="160.2"/>
      </g>
     </g>
     <g id="text_2">
      <text style="font-family:Latin Modern Math;font-size:10px;font-stretch:normal;font-style:normal;font-weight:normal;text-anchor:middle;" transform="rotate(-0, 74.109785, 174.140625)" x="74.109785" y="174.140625">10</text>
     </g>
    </g>
    <g id="xtick_3">
     <g id="line2d_3">
      <g>
       <use style="stroke:#000000;stroke-width:0.8;" x="107.842297" xlink:href="#m07f6d86755" y="160.2"/>
      </g>
     </g>
     <g id="text_3">
      <text style="font-family:Latin Modern Math;font-size:10px;font-stretch:normal;font-style:normal;font-weight:normal;text-anchor:middle;" transform="rotate(-0, 107.842297, 174.140625)" x="107.842297" y="174.140625">20</text>
     </g>
    </g>
    <g id="xtick_4">
     <g id="line2d_4">
      <g>
       <use style="stroke:#000000;stroke-width:0.8;" x="141.574809" xlink:href="#m07f6d86755" y="160.2"/>
      </g>
     </g>
     <g id="text_4">
      <text style="font-family:Latin Modern Math;font-size:10px;font-stretch:normal;font-style:normal;font-weight:normal;text-anchor:middle;" transform="rotate(-0, 141.574809, 174.140625)" x="141.574809" y="174.140625">30</text>
     </g>
    </g>
    <g id="xtick_5">
     <g id="line2d_5">
      <g>
       <use style="stroke:#000000;stroke-width:0.8;" x="175.307321" xlink:href="#m07f6d86755" y="160.2"/>
      </g>
     </g>
     <g id="text_5">
      <text style="font-family:Latin Modern Math;font-size:10px;font-stretch:normal;font-style:normal;font-weight:normal;text-anchor:middle;" transform="rotate(-0, 175.307321, 174.140625)" x="175.307321" y="174.140625">40</text>
     </g>
    </g>
    <g id="xtick_6">
     <g id="line2d_6">
      <g>
       <use style="stroke:#000000;stroke-width:0.8;" x="209.039832" xlink:href="#m07f6d86755" y="160.2"/>
      </g>
     </g>
     <g id="text_6">
      <text style="font-family:Latin Modern Math;font-size:10px;font-stretch:normal;font-style:normal;font-weight:normal;text-anchor:middle;" transform="rotate(-0, 209.039832, 174.140625)" x="209.039832" y="174.140625">50</text>
     </g>
    </g>
    <g id="text_7">
     <text style="font-family:Latin Modern Math;font-size:10px;font-stretch:normal;font-style:normal;font-weight:normal;text-anchor:middle;" transform="rotate(-0, 129.15, 187.58125)" x="129.15" y="187.58125">Time [s]</text>
    </g>
   </g>
   <g id="matplotlib.axis_2">
    <g id="ytick_1">
     <g id="line2d_7">
      <defs>
       <path d="M 0 0 
L -3.5 0 
" id="mc8ffadae9b" style="stroke:#000000;stroke-width:0.8;"/>
      </defs>
      <g>
       <use style="stroke:#000000;stroke-width:0.8;" x="31.5" xlink:href="#mc8ffadae9b" y="129.047153"/>
      </g>
     </g>
     <g id="text_8">
      <text style="font-family:Latin Modern Math;font-size:10px;font-stretch:normal;font-style:normal;font-weight:normal;text-anchor:end;" transform="rotate(-0, 24.5, 132.517466)" x="24.5" y="132.517466">−400</text>
     </g>
    </g>
    <g id="ytick_2">
     <g id="line2d_8">
      <g>
       <use style="stroke:#000000;stroke-width:0.8;" x="31.5" xlink:href="#mc8ffadae9b" y="94.726814"/>
      </g>
     </g>
     <g id="text_9">
      <text style="font-family:Latin Modern Math;font-size:10px;font-stretch:normal;font-style:normal;font-weight:normal;text-anchor:end;" transform="rotate(-0, 24.5, 98.197127)" x="24.5" y="98.197127">−200</text>
     </g>
    </g>
    <g id="ytick_3">
     <g id="line2d_9">
      <g>
       <use style="stroke:#000000;stroke-width:0.8;" x="31.5" xlink:href="#mc8ffadae9b" y="60.406475"/>
      </g>
     </g>
     <g id="text_10">
      <text style="font-family:Latin Modern Math;font-size:10px;font-stretch:normal;font-style:normal;font-weight:normal;text-anchor:end;" transform="rotate(-0, 24.5, 63.876788)" x="24.5" y="63.876788">0</text>
     </g>
    </g>
    <g id="ytick_4">
     <g id="line2d_10">
      <g>
       <use style="stroke:#000000;stroke-width:0.8;" x="31.5" xlink:href="#mc8ffadae9b" y="26.086136"/>
      </g>
     </g>
     <g id="text_11">
      <text style="font-family:Latin Modern Math;font-size:10px;font-stretch:normal;font-style:normal;font-weight:normal;text-anchor:end;" transform="rotate(-0, 24.5, 29.556449)" x="24.5" y="29.556449">200</text>
     </g>
    </g>
    <g id="text_12">
     <text style="font-family:Latin Modern Math;font-size:10px;font-stretch:normal;font-style:normal;font-weight:normal;text-anchor:middle;" transform="rotate(-90, -4.220313, 90.9)" x="-4.220313" y="90.9">Satisfaction of Specification</text>
    </g>
   </g>
   <g id="line2d_11">
    <path clip-path="url(#pb43ead8fdb)" d="M 40.377273 148.65377 
L 82.205588 148.583667 
L 82.542913 147.766613 
L 82.767796 146.856691 
L 83.554888 143.14764 
L 83.779771 141.718566 
L 192.286018 141.711069 
L 192.510902 141.081852 
L 193.07311 136.920853 
L 193.74776 130.063534 
L 195.321944 113.566504 
L 195.546828 113.402927 
L 196.896128 113.402927 
L 198.132987 102.483743 
L 199.257404 94.242507 
L 200.606704 85.534464 
L 200.831588 85.252397 
L 205.891465 85.16917 
L 206.341232 83.837895 
L 206.678557 81.144703 
L 208.140299 68.100341 
L 208.365182 67.433124 
L 208.702507 65.296298 
L 209.264716 61.59196 
L 209.826924 58.996463 
L 210.051808 58.561959 
L 211.738433 58.500892 
L 212.075759 58.087894 
L 212.300642 57.822619 
L 212.637967 57.772288 
L 217.697844 57.772288 
L 217.697844 57.772288 
" style="fill:none;stroke:#008000;stroke-linecap:square;stroke-width:2;"/>
   </g>
   <g id="line2d_12">
    <path clip-path="url(#pb43ead8fdb)" d="M 40.377273 153.9 
L 41.839015 153.861686 
L 151.244795 153.853994 
L 151.58212 152.219403 
L 152.144329 151.222893 
L 152.706538 148.612849 
L 153.830955 142.942124 
L 154.955372 138.537783 
L 155.405138 137.029001 
L 155.967347 134.505793 
L 156.529556 131.887585 
L 156.979322 130.634292 
L 157.541531 129.711586 
L 158.328623 129.447333 
L 159.902807 126.223822 
L 160.577457 124.391605 
L 160.689899 124.391605 
L 161.364549 123.525412 
L 162.826291 120.504109 
L 163.163616 120.340513 
L 163.500941 119.60779 
L 164.06315 118.055225 
L 166.424426 104.626756 
L 166.761751 103.676588 
L 167.099076 102.708303 
L 167.661284 101.717766 
L 167.886168 101.267599 
L 168.111051 101.085418 
L 170.697211 101.069405 
L 178.118363 101.069405 
L 178.230805 100.918853 
L 178.905455 98.239361 
L 179.355222 95.642201 
L 179.91743 90.30972 
L 181.604056 73.516316 
L 181.941381 71.258532 
L 182.728473 65.082644 
L 183.403123 61.550253 
L 184.077774 58.736116 
L 184.639982 56.725723 
L 184.864866 56.139422 
L 184.977307 56.086359 
L 185.651958 54.265575 
L 217.697844 54.243891 
L 217.697844 54.243891 
" style="fill:none;stroke:#ff0000;stroke-linecap:square;stroke-width:2;"/>
   </g>
   <g id="line2d_13">
    <path clip-path="url(#pb43ead8fdb)" d="M 40.377273 27.9 
L 41.50169 27.944203 
L 47.910867 27.944203 
L 48.697959 31.00954 
L 49.035284 31.11563 
L 49.147726 31.22398 
L 49.597493 33.35963 
L 50.72191 34.597322 
L 51.171677 35.679918 
L 53.308069 40.587895 
L 53.982719 41.772799 
L 54.432486 42.6862 
L 54.994695 43.171534 
L 55.894228 43.863224 
L 56.68132 43.888593 
L 57.131087 44.21792 
L 57.468412 44.38706 
L 58.030621 44.748678 
L 58.592829 44.816771 
L 67.588166 44.923985 
L 68.262816 47.542733 
L 68.487699 48.844437 
L 193.410435 48.844437 
L 193.522877 49.174239 
L 194.085085 53.918042 
L 217.697844 53.918042 
L 217.697844 53.918042 
" style="fill:none;stroke:#000000;stroke-dasharray:7.4,3.2;stroke-dashoffset:0;stroke-width:2;"/>
   </g>
   <g id="line2d_14">
    <path clip-path="url(#pb43ead8fdb)" d="M 40.377273 60.406475 
L 217.922727 60.406475 
" style="fill:none;stroke:#000000;stroke-linecap:square;stroke-width:2;"/>
   </g>
   <g id="line2d_15">
    <path clip-path="url(#pb43ead8fdb)" d="M 40.377273 153.9 
L 41.839015 153.861686 
L 151.244795 153.853994 
L 151.58212 152.219403 
L 152.144329 151.222893 
L 152.706538 148.612849 
L 153.830955 142.942124 
L 154.16828 141.71332 
L 192.286018 141.711069 
L 192.510902 141.081852 
L 193.07311 136.920853 
L 193.74776 130.063534 
L 195.321944 113.566504 
L 195.546828 113.402927 
L 196.896128 113.402927 
L 198.132987 102.483743 
L 199.257404 94.242507 
L 200.606704 85.534464 
L 200.831588 85.252397 
L 205.891465 85.16917 
L 206.341232 83.837895 
L 206.678557 81.144703 
L 208.140299 68.100341 
L 208.365182 67.433124 
L 208.702507 65.296298 
L 209.264716 61.59196 
L 209.826924 58.996463 
L 210.051808 58.561959 
L 211.738433 58.500892 
L 212.075759 58.087894 
L 212.300642 57.822619 
L 212.637967 57.772288 
L 217.697844 57.772288 
L 217.697844 57.772288 
" style="fill:none;stroke:#1f77b4;stroke-linecap:square;stroke-width:2;"/>
   </g>
   <g id="line2d_16">
    <defs>
     <path d="M 0 3 
C 0.795609 3 1.55874 2.683901 2.12132 2.12132 
C 2.683901 1.55874 3 0.795609 3 0 
C 3 -0.795609 2.683901 -1.55874 2.12132 -2.12132 
C 1.55874 -2.683901 0.795609 -3 0 -3 
C -0.795609 -3 -1.55874 -2.683901 -2.12132 -2.12132 
C -2.683901 -1.55874 -3 -0.795609 -3 0 
C -3 0.795609 -2.683901 1.55874 -2.12132 2.12132 
C -1.55874 2.683901 -0.795609 3 0 3 
z
" id="m11554d4e08" style="stroke:#0000ff;"/>
    </defs>
    <g clip-path="url(#pb43ead8fdb)">
     <use style="fill:#0000ff;stroke:#0000ff;" x="217.810286" xlink:href="#m11554d4e08" y="57.772288"/>
    </g>
   </g>
   <g id="patch_3">
    <path d="M 31.5 160.2 
L 31.5 21.6 
" style="fill:none;stroke:#000000;stroke-linecap:square;stroke-linejoin:miter;stroke-width:0.8;"/>
   </g>
   <g id="patch_4">
    <path d="M 226.8 160.2 
L 226.8 21.6 
" style="fill:none;stroke:#000000;stroke-linecap:square;stroke-linejoin:miter;stroke-width:0.8;"/>
   </g>
   <g id="patch_5">
    <path d="M 31.5 160.2 
L 226.8 160.2 
" style="fill:none;stroke:#000000;stroke-linecap:square;stroke-linejoin:miter;stroke-width:0.8;"/>
   </g>
   <g id="patch_6">
    <path d="M 31.5 21.6 
L 226.8 21.6 
" style="fill:none;stroke:#000000;stroke-linecap:square;stroke-linejoin:miter;stroke-width:0.8;"/>
   </g>
  </g>
 </g>
 <defs>
  <clipPath id="pb43ead8fdb">
   <rect height="138.6" width="195.3" x="31.5" y="21.6"/>
  </clipPath>
 </defs>
</svg>
